<?xml version="1.0" ?><svg data-name="Layer 1" id="Layer_1" viewBox="0 0 100 100" xmlns="http://www.w3.org/2000/svg"><defs><style>.cls-1{fill:#fecc09;}.cls-2{fill:#1a1818;}.cls-3{fill:#ef6538;}</style></defs><title/><circle class="cls-1" cx="50" cy="50" r="30.35"/><path class="cls-2" d="M50,9.65A40.35,40.35,0,1,0,90.35,50,40.39,40.39,0,0,0,50,9.65Zm0,70.7A30.35,30.35,0,1,1,80.35,50,30.39,30.39,0,0,1,50,80.35Z"/><circle class="cls-2" cx="61.02" cy="39.33" r="5.5"/><circle class="cls-2" cx="38.98" cy="39.33" r="5.5"/><path class="cls-3" d="M65.35,53.67a15.35,15.35,0,1,1-30.7,0Z"/><path class="cls-2" d="M65.35,53.67a15.32,15.32,0,0,1-4.73,11.07,15.32,15.32,0,0,0-21.24,0,15.32,15.32,0,0,1-4.73-11.07Z"/></svg>