<?xml version="1.0" ?><svg data-name="Layer 1" id="Layer_1" viewBox="0 0 100 100" xmlns="http://www.w3.org/2000/svg"><defs><style>.cls-1{fill:#fecc09;}.cls-2{fill:#1a1818;}</style></defs><title/><path class="cls-1" d="M80.35,50A30.35,30.35,0,1,1,50,19.65,30.38,30.38,0,0,1,80.35,50Z"/><path class="cls-2" d="M50,9.65A40.35,40.35,0,1,0,90.35,50,40.39,40.39,0,0,0,50,9.65Zm0,70.7A30.35,30.35,0,1,1,80.35,50,30.39,30.39,0,0,1,50,80.35Z"/><polygon class="cls-2" points="42.91 31.45 38.98 35.38 35.08 31.48 30.13 36.43 34.03 40.33 30.16 44.2 35.11 49.15 38.98 45.28 42.88 49.18 47.83 44.23 43.93 40.33 47.86 36.4 42.91 31.45"/><polygon class="cls-2" points="69.87 36.43 64.92 31.48 61.02 35.38 57.12 31.48 52.17 36.43 56.07 40.33 52.17 44.23 57.12 49.18 61.02 45.28 64.92 49.18 69.87 44.23 65.97 40.33 69.87 36.43"/><circle class="cls-2" cx="50" cy="62.67" r="9.67"/></svg>