<?xml version="1.0" encoding="utf-8"?>
<!-- Generator: Adobe Illustrator 16.0.0, SVG Export Plug-In . SVG Version: 6.00 Build 0)  -->
<!DOCTYPE svg PUBLIC "-//W3C//DTD SVG 1.1//EN" "http://www.w3.org/Graphics/SVG/1.1/DTD/svg11.dtd">
<svg version="1.1" id="Layer_1" xmlns="http://www.w3.org/2000/svg" xmlns:xlink="http://www.w3.org/1999/xlink" x="0px" y="0px"
	 width="841.889px" height="595.281px" viewBox="0 0 841.889 595.281" enable-background="new 0 0 841.889 595.281"
	 xml:space="preserve">
<title></title>
<path d="M420.945,57.444c-132.656,0-240.195,107.54-240.195,240.196s107.539,240.195,240.195,240.195S661.14,430.296,661.14,297.64
	C661.009,165.038,553.546,57.576,420.945,57.444z M420.945,478.308c-99.779,0-180.667-80.889-180.667-180.668
	c0-99.78,80.888-180.667,180.667-180.667c99.78,0,180.668,80.888,180.668,180.667l0,0
	C601.481,397.365,520.67,478.177,420.945,478.308z"/>
<circle cx="355.345" cy="234.124" r="32.74"/>
<circle cx="486.544" cy="234.124" r="32.74"/>
<path d="M510.237,324.427c3.988,22.502-5.953,45.6-23.037,62.148c-37.228,34.965-95.223,34.965-132.45,0
	c-17.144-16.43-27.085-39.646-23.097-62.148c15.016,10.076,31.446,17.859,48.754,23.098c13.154,3.838,26.776,5.842,40.479,5.953
	c13.725-0.084,27.37-2.086,40.539-5.953C478.755,342.302,495.208,334.517,510.237,324.427z"/>
</svg>
