<?xml version="1.0" encoding="utf-8"?>
<!-- Generator: Adobe Illustrator 16.0.0, SVG Export Plug-In . SVG Version: 6.00 Build 0)  -->
<!DOCTYPE svg PUBLIC "-//W3C//DTD SVG 1.1//EN" "http://www.w3.org/Graphics/SVG/1.1/DTD/svg11.dtd">
<svg version="1.1" id="Layer_1" xmlns="http://www.w3.org/2000/svg" xmlns:xlink="http://www.w3.org/1999/xlink" x="0px" y="0px"
	 width="841.889px" height="595.281px" viewBox="0 0 841.889 595.281" enable-background="new 0 0 841.889 595.281"
	 xml:space="preserve">
<title></title>
<path d="M420.945,57.444c-132.656,0-240.195,107.54-240.195,240.196s107.539,240.195,240.195,240.195S661.14,430.296,661.14,297.64
	C661.009,165.038,553.546,57.576,420.945,57.444z M420.945,478.308c-99.779,0-180.667-80.889-180.667-180.668
	c0-99.78,80.888-180.667,180.667-180.667c99.78,0,180.668,80.888,180.668,180.667l0,0
	C601.481,397.365,520.67,478.177,420.945,478.308z"/>
<circle cx="486.544" cy="234.124" r="32.74"/>
<circle cx="355.345" cy="234.124" r="32.74"/>
<rect x="330.045" y="332.107" width="181.858" height="59.527"/>
</svg>
