<?xml version="1.0" encoding="utf-8"?>
<!-- Generator: Adobe Illustrator 16.0.0, SVG Export Plug-In . SVG Version: 6.00 Build 0)  -->
<!DOCTYPE svg PUBLIC "-//W3C//DTD SVG 1.1//EN" "http://www.w3.org/Graphics/SVG/1.1/DTD/svg11.dtd">
<svg version="1.1" id="Layer_1" xmlns="http://www.w3.org/2000/svg" xmlns:xlink="http://www.w3.org/1999/xlink" x="0px" y="0px"
	 width="841.889px" height="595.281px" viewBox="0 0 841.889 595.281" enable-background="new 0 0 841.889 595.281"
	 xml:space="preserve">
<title></title>
<path d="M420.945,57.444c-132.656,0-240.195,107.54-240.195,240.196s107.539,240.195,240.195,240.195S661.14,430.296,661.14,297.64
	C661.009,165.038,553.546,57.576,420.945,57.444z M420.945,478.308c-99.779,0-180.667-80.889-180.667-180.668
	c0-99.78,80.888-180.667,180.667-180.667c99.78,0,180.668,80.888,180.668,180.667l0,0
	C601.481,397.365,520.67,478.177,420.945,478.308z"/>
<polygon points="378.74,187.216 355.345,210.61 332.129,187.394 302.662,216.86 325.878,240.077 302.841,263.114 332.308,292.58 
	355.345,269.543 378.561,292.759 408.028,263.292 384.812,240.077 408.206,216.682 "/>
<polygon points="539.227,216.86 509.76,187.394 486.544,210.61 463.328,187.394 433.863,216.86 457.078,240.077 433.863,263.292 
	463.328,292.759 486.544,269.543 509.76,292.759 539.227,263.292 516.011,240.077 "/>
<circle cx="420.945" cy="373.062" r="57.564"/>
</svg>
